# xmcd CD database file generated by Grip 3.2.0
# 
# Track frame offsets:
#       150
#       15605
#       30922
#       47102
#       62388
#       78677
#       91932
#       113282
#       129516
#       150417
#       178096
#       202156
# 
# Disc length: 2915 seconds
# 
# Revision: 2
# Processed by: cddbd v1.5.2PL0 Copyright (c) Steve Scherf et al.
# Submitted via: Grip 3.2.0
# 
DISCID=8b0b610c
DTITLE=Happy Lopez - High In The Murk
DYEAR=2004
DGENRE=Country
TTITLE0=Shake A Red Hand Goodbye
TTITLE1=All Sky
TTITLE2=Moss Covered Tracks
TTITLE3=Gurs Of Brixton
TTITLE4=Ballad Of The Gutter Snipes
TTITLE5=Shattered
TTITLE6=Gypsy Wife
TTITLE7=Black Sea Shanty
TTITLE8=Where The Wild Things Grow
TTITLE9=Death
TTITLE10=A Dockyard Farewell
TTITLE11=Fare Thee Well
EXTD=
EXTT0=
EXTT1=
EXTT2=
EXTT3=
EXTT4=
EXTT5=
EXTT6=
EXTT7=
EXTT8=
EXTT9=
EXTT10=
EXTT11=
PLAYORDER=
